<mxfile host="app.diagrams.net" agent="Mozilla/5.0 (Windows NT 10.0; Win64; x64) AppleWebKit/537.36 (KHTML, like Gecko) Chrome/131.0.0.0 Safari/537.36" version="24.9.0">
  <diagram name="Página-1" id="lax2TqSj_1OO8DwIX88_">
    <mxGraphModel dx="2227" dy="1910" grid="1" gridSize="10" guides="1" tooltips="1" connect="1" arrows="1" fold="1" page="1" pageScale="1" pageWidth="827" pageHeight="1169" math="0" shadow="0">
      <root>
        <mxCell id="0" />
        <mxCell id="1" parent="0" />
        <mxCell id="YvFbRYoNOdCVoG-_Of37-11" style="rounded=0;orthogonalLoop=1;jettySize=auto;html=1;exitX=1;exitY=0.3333333333333333;exitDx=0;exitDy=0;exitPerimeter=0;endArrow=none;endFill=0;" edge="1" parent="1" source="YvFbRYoNOdCVoG-_Of37-1" target="YvFbRYoNOdCVoG-_Of37-2">
          <mxGeometry relative="1" as="geometry" />
        </mxCell>
        <mxCell id="YvFbRYoNOdCVoG-_Of37-12" style="rounded=0;orthogonalLoop=1;jettySize=auto;html=1;exitX=1;exitY=0.3333333333333333;exitDx=0;exitDy=0;exitPerimeter=0;endArrow=none;endFill=0;" edge="1" parent="1" source="YvFbRYoNOdCVoG-_Of37-1" target="YvFbRYoNOdCVoG-_Of37-6">
          <mxGeometry relative="1" as="geometry" />
        </mxCell>
        <mxCell id="YvFbRYoNOdCVoG-_Of37-13" style="rounded=0;orthogonalLoop=1;jettySize=auto;html=1;exitX=1;exitY=0.3333333333333333;exitDx=0;exitDy=0;exitPerimeter=0;endArrow=none;endFill=0;" edge="1" parent="1" source="YvFbRYoNOdCVoG-_Of37-1" target="YvFbRYoNOdCVoG-_Of37-7">
          <mxGeometry relative="1" as="geometry" />
        </mxCell>
        <mxCell id="YvFbRYoNOdCVoG-_Of37-14" style="rounded=0;orthogonalLoop=1;jettySize=auto;html=1;exitX=1;exitY=0.3333333333333333;exitDx=0;exitDy=0;exitPerimeter=0;endArrow=none;endFill=0;" edge="1" parent="1" source="YvFbRYoNOdCVoG-_Of37-1" target="YvFbRYoNOdCVoG-_Of37-8">
          <mxGeometry relative="1" as="geometry" />
        </mxCell>
        <mxCell id="YvFbRYoNOdCVoG-_Of37-16" style="rounded=0;orthogonalLoop=1;jettySize=auto;html=1;exitX=1;exitY=0.3333333333333333;exitDx=0;exitDy=0;exitPerimeter=0;endArrow=none;endFill=0;" edge="1" parent="1" source="YvFbRYoNOdCVoG-_Of37-1" target="YvFbRYoNOdCVoG-_Of37-15">
          <mxGeometry relative="1" as="geometry" />
        </mxCell>
        <mxCell id="YvFbRYoNOdCVoG-_Of37-1" value="Cliente_Atd&lt;div&gt;&lt;br&gt;&lt;/div&gt;" style="shape=umlActor;html=1;verticalLabelPosition=bottom;verticalAlign=top;align=center;" vertex="1" parent="1">
          <mxGeometry y="230" width="30" height="60" as="geometry" />
        </mxCell>
        <mxCell id="YvFbRYoNOdCVoG-_Of37-2" value="Cadastra o ID" style="ellipse;whiteSpace=wrap;html=1;" vertex="1" parent="1">
          <mxGeometry x="50" y="20" width="140" height="70" as="geometry" />
        </mxCell>
        <mxCell id="YvFbRYoNOdCVoG-_Of37-19" style="rounded=0;orthogonalLoop=1;jettySize=auto;html=1;exitX=0;exitY=0.3333333333333333;exitDx=0;exitDy=0;exitPerimeter=0;endArrow=none;endFill=0;" edge="1" parent="1" source="YvFbRYoNOdCVoG-_Of37-4" target="YvFbRYoNOdCVoG-_Of37-5">
          <mxGeometry relative="1" as="geometry" />
        </mxCell>
        <mxCell id="YvFbRYoNOdCVoG-_Of37-20" style="rounded=0;orthogonalLoop=1;jettySize=auto;html=1;exitX=0;exitY=0.3333333333333333;exitDx=0;exitDy=0;exitPerimeter=0;endArrow=none;endFill=0;" edge="1" parent="1" source="YvFbRYoNOdCVoG-_Of37-4" target="YvFbRYoNOdCVoG-_Of37-9">
          <mxGeometry relative="1" as="geometry" />
        </mxCell>
        <mxCell id="YvFbRYoNOdCVoG-_Of37-21" style="rounded=0;orthogonalLoop=1;jettySize=auto;html=1;exitX=0;exitY=0.3333333333333333;exitDx=0;exitDy=0;exitPerimeter=0;endArrow=none;endFill=0;" edge="1" parent="1" source="YvFbRYoNOdCVoG-_Of37-4" target="YvFbRYoNOdCVoG-_Of37-10">
          <mxGeometry relative="1" as="geometry" />
        </mxCell>
        <mxCell id="YvFbRYoNOdCVoG-_Of37-22" style="rounded=0;orthogonalLoop=1;jettySize=auto;html=1;exitX=0;exitY=0.3333333333333333;exitDx=0;exitDy=0;exitPerimeter=0;endArrow=none;endFill=0;" edge="1" parent="1" source="YvFbRYoNOdCVoG-_Of37-4" target="YvFbRYoNOdCVoG-_Of37-17">
          <mxGeometry relative="1" as="geometry" />
        </mxCell>
        <mxCell id="YvFbRYoNOdCVoG-_Of37-4" value="Funcionário_Vet&lt;div&gt;&lt;br&gt;&lt;/div&gt;" style="shape=umlActor;html=1;verticalLabelPosition=bottom;verticalAlign=top;align=center;" vertex="1" parent="1">
          <mxGeometry x="797" y="235" width="30" height="60" as="geometry" />
        </mxCell>
        <mxCell id="YvFbRYoNOdCVoG-_Of37-5" value="Cadastrar ID do Funcionário" style="ellipse;whiteSpace=wrap;html=1;" vertex="1" parent="1">
          <mxGeometry x="640" y="20" width="140" height="70" as="geometry" />
        </mxCell>
        <mxCell id="YvFbRYoNOdCVoG-_Of37-6" value="Informar Animal" style="ellipse;whiteSpace=wrap;html=1;" vertex="1" parent="1">
          <mxGeometry x="120" y="100" width="140" height="70" as="geometry" />
        </mxCell>
        <mxCell id="YvFbRYoNOdCVoG-_Of37-7" value="Informa data" style="ellipse;whiteSpace=wrap;html=1;" vertex="1" parent="1">
          <mxGeometry x="204" y="210" width="140" height="70" as="geometry" />
        </mxCell>
        <mxCell id="YvFbRYoNOdCVoG-_Of37-8" value="Tipo de A&lt;span style=&quot;background-color: initial;&quot;&gt;tendimento&lt;/span&gt;" style="ellipse;whiteSpace=wrap;html=1;" vertex="1" parent="1">
          <mxGeometry x="204" y="310" width="140" height="70" as="geometry" />
        </mxCell>
        <mxCell id="YvFbRYoNOdCVoG-_Of37-9" value="Nome do Funcionário" style="ellipse;whiteSpace=wrap;html=1;" vertex="1" parent="1">
          <mxGeometry x="567" y="130" width="140" height="70" as="geometry" />
        </mxCell>
        <mxCell id="YvFbRYoNOdCVoG-_Of37-10" value="Especialidade Veterinária" style="ellipse;whiteSpace=wrap;html=1;" vertex="1" parent="1">
          <mxGeometry x="567" y="220" width="140" height="70" as="geometry" />
        </mxCell>
        <mxCell id="YvFbRYoNOdCVoG-_Of37-15" value="Preço à pagar" style="ellipse;whiteSpace=wrap;html=1;" vertex="1" parent="1">
          <mxGeometry x="-10" y="370" width="140" height="70" as="geometry" />
        </mxCell>
        <mxCell id="YvFbRYoNOdCVoG-_Of37-17" value="Contato do Funcionário" style="ellipse;whiteSpace=wrap;html=1;" vertex="1" parent="1">
          <mxGeometry x="570" y="330" width="140" height="70" as="geometry" />
        </mxCell>
        <mxCell id="YvFbRYoNOdCVoG-_Of37-23" value="&amp;lt;&amp;lt;include&amp;gt;&amp;gt;" style="edgeStyle=none;html=1;endArrow=open;verticalAlign=bottom;dashed=1;labelBackgroundColor=none;rounded=0;" edge="1" parent="1" source="YvFbRYoNOdCVoG-_Of37-15" target="YvFbRYoNOdCVoG-_Of37-8">
          <mxGeometry width="160" relative="1" as="geometry">
            <mxPoint x="180" y="200" as="sourcePoint" />
            <mxPoint x="230" y="440" as="targetPoint" />
          </mxGeometry>
        </mxCell>
        <mxCell id="YvFbRYoNOdCVoG-_Of37-32" style="rounded=0;orthogonalLoop=1;jettySize=auto;html=1;exitX=0;exitY=0.3333333333333333;exitDx=0;exitDy=0;exitPerimeter=0;endArrow=none;endFill=0;" edge="1" parent="1" source="YvFbRYoNOdCVoG-_Of37-24" target="YvFbRYoNOdCVoG-_Of37-7">
          <mxGeometry relative="1" as="geometry" />
        </mxCell>
        <mxCell id="YvFbRYoNOdCVoG-_Of37-34" style="rounded=0;orthogonalLoop=1;jettySize=auto;html=1;exitX=0;exitY=0.3333333333333333;exitDx=0;exitDy=0;exitPerimeter=0;endArrow=none;endFill=0;" edge="1" parent="1" source="YvFbRYoNOdCVoG-_Of37-24" target="YvFbRYoNOdCVoG-_Of37-6">
          <mxGeometry relative="1" as="geometry" />
        </mxCell>
        <mxCell id="YvFbRYoNOdCVoG-_Of37-35" style="rounded=0;orthogonalLoop=1;jettySize=auto;html=1;exitX=1;exitY=0.3333333333333333;exitDx=0;exitDy=0;exitPerimeter=0;endArrow=none;endFill=0;" edge="1" parent="1" source="YvFbRYoNOdCVoG-_Of37-24" target="YvFbRYoNOdCVoG-_Of37-10">
          <mxGeometry relative="1" as="geometry" />
        </mxCell>
        <mxCell id="YvFbRYoNOdCVoG-_Of37-24" value="Clínica&lt;div&gt;&lt;br&gt;&lt;/div&gt;" style="shape=umlActor;html=1;verticalLabelPosition=bottom;verticalAlign=top;align=center;" vertex="1" parent="1">
          <mxGeometry x="398.5" y="200" width="30" height="65" as="geometry" />
        </mxCell>
        <mxCell id="YvFbRYoNOdCVoG-_Of37-27" value="&amp;lt;&amp;lt;extend&amp;gt;&amp;gt;" style="edgeStyle=none;html=1;startArrow=open;endArrow=none;startSize=12;verticalAlign=bottom;dashed=1;labelBackgroundColor=none;rounded=0;entryX=0;entryY=0.5;entryDx=0;entryDy=0;" edge="1" parent="1" source="YvFbRYoNOdCVoG-_Of37-8" target="YvFbRYoNOdCVoG-_Of37-10">
          <mxGeometry width="160" relative="1" as="geometry">
            <mxPoint x="360" y="300" as="sourcePoint" />
            <mxPoint x="520" y="300" as="targetPoint" />
          </mxGeometry>
        </mxCell>
        <mxCell id="YvFbRYoNOdCVoG-_Of37-28" value="Verificar Senha" style="ellipse;whiteSpace=wrap;html=1;" vertex="1" parent="1">
          <mxGeometry x="344" y="-20" width="140" height="70" as="geometry" />
        </mxCell>
        <mxCell id="YvFbRYoNOdCVoG-_Of37-29" value="Exibir Erro de Login" style="ellipse;whiteSpace=wrap;html=1;" vertex="1" parent="1">
          <mxGeometry x="344" y="90" width="140" height="70" as="geometry" />
        </mxCell>
        <mxCell id="YvFbRYoNOdCVoG-_Of37-30" value="&amp;lt;&amp;lt;include&amp;gt;&amp;gt;" style="edgeStyle=none;html=1;endArrow=open;verticalAlign=bottom;dashed=1;labelBackgroundColor=none;rounded=0;exitX=0.956;exitY=0.293;exitDx=0;exitDy=0;exitPerimeter=0;" edge="1" parent="1" source="YvFbRYoNOdCVoG-_Of37-2" target="YvFbRYoNOdCVoG-_Of37-28">
          <mxGeometry width="160" relative="1" as="geometry">
            <mxPoint x="80" y="30" as="sourcePoint" />
            <mxPoint x="240" y="30" as="targetPoint" />
          </mxGeometry>
        </mxCell>
        <mxCell id="YvFbRYoNOdCVoG-_Of37-31" value="&amp;lt;&amp;lt;extend&amp;gt;&amp;gt;" style="edgeStyle=none;html=1;startArrow=open;endArrow=none;startSize=12;verticalAlign=bottom;dashed=1;labelBackgroundColor=none;rounded=0;entryX=0.09;entryY=0.318;entryDx=0;entryDy=0;entryPerimeter=0;" edge="1" parent="1" source="YvFbRYoNOdCVoG-_Of37-2" target="YvFbRYoNOdCVoG-_Of37-29">
          <mxGeometry width="160" relative="1" as="geometry">
            <mxPoint x="160" y="95" as="sourcePoint" />
            <mxPoint x="337.1400000000001" y="117.14999999999998" as="targetPoint" />
          </mxGeometry>
        </mxCell>
        <mxCell id="YvFbRYoNOdCVoG-_Of37-33" value="&amp;lt;&amp;lt;extend&amp;gt;&amp;gt;" style="edgeStyle=none;html=1;startArrow=open;endArrow=none;startSize=12;verticalAlign=bottom;dashed=1;labelBackgroundColor=none;rounded=0;" edge="1" parent="1" source="YvFbRYoNOdCVoG-_Of37-15" target="YvFbRYoNOdCVoG-_Of37-6">
          <mxGeometry width="160" relative="1" as="geometry">
            <mxPoint x="-110" y="220" as="sourcePoint" />
            <mxPoint x="50" y="220" as="targetPoint" />
          </mxGeometry>
        </mxCell>
        <mxCell id="YvFbRYoNOdCVoG-_Of37-36" value="&amp;lt;&amp;lt;include&amp;gt;&amp;gt;" style="edgeStyle=none;html=1;endArrow=open;verticalAlign=bottom;dashed=1;labelBackgroundColor=none;rounded=0;" edge="1" parent="1" source="YvFbRYoNOdCVoG-_Of37-5" target="YvFbRYoNOdCVoG-_Of37-28">
          <mxGeometry width="160" relative="1" as="geometry">
            <mxPoint x="550" y="50" as="sourcePoint" />
            <mxPoint x="710" y="50" as="targetPoint" />
          </mxGeometry>
        </mxCell>
        <mxCell id="YvFbRYoNOdCVoG-_Of37-37" value="&amp;lt;&amp;lt;extend&amp;gt;&amp;gt;" style="edgeStyle=none;html=1;startArrow=open;endArrow=none;startSize=12;verticalAlign=bottom;dashed=1;labelBackgroundColor=none;rounded=0;" edge="1" parent="1" source="YvFbRYoNOdCVoG-_Of37-5" target="YvFbRYoNOdCVoG-_Of37-29">
          <mxGeometry width="160" relative="1" as="geometry">
            <mxPoint x="480" y="200" as="sourcePoint" />
            <mxPoint x="640" y="200" as="targetPoint" />
          </mxGeometry>
        </mxCell>
      </root>
    </mxGraphModel>
  </diagram>
</mxfile>
